<svg width="176" height="55" viewBox="0 0 176 55" fill="none" xmlns="http://www.w3.org/2000/svg">
<path d="M30.4574 24.7126L24.2284 30.7846L25.6994 39.3606C25.7309 39.5445 25.7104 39.7336 25.64 39.9064C25.5697 40.0792 25.4524 40.2289 25.3015 40.3386C25.1505 40.4482 24.9719 40.5135 24.7858 40.5269C24.5997 40.5404 24.4136 40.5015 24.2484 40.4146L16.5464 36.3656L8.84541 40.4136C8.68026 40.5005 8.49412 40.5394 8.30802 40.5259C8.12193 40.5125 7.9433 40.4472 7.79234 40.3376C7.64138 40.2279 7.52411 40.0782 7.45379 39.9054C7.38347 39.7326 7.3629 39.5435 7.39441 39.3596L8.86541 30.7836L2.63541 24.7126C2.50169 24.5823 2.40711 24.4172 2.36238 24.236C2.31765 24.0547 2.32455 23.8646 2.38231 23.687C2.44007 23.5095 2.54637 23.3517 2.68919 23.2314C2.832 23.1112 3.00563 23.0333 3.19041 23.0066L11.7994 21.7566L15.6494 13.9546C15.9864 13.2716 17.1064 13.2716 17.4434 13.9546L21.2934 21.7566L29.9024 23.0066C30.0868 23.034 30.2598 23.1122 30.4022 23.2326C30.5445 23.3529 30.6505 23.5106 30.7081 23.6878C30.7658 23.865 30.7729 24.0548 30.7286 24.2359C30.6843 24.4169 30.5904 24.582 30.4574 24.7126Z" fill="#F3B209"/>
<path d="M8.84541 40.4136L17.4434 36.3656V13.9546C17.1064 13.2716 15.9864 13.2716 15.6494 13.9546L11.7994 21.7566L3.19041 23.0066C3.00563 23.0333 2.832 23.1112 2.68919 23.2314C2.54637 23.3517 2.44007 23.5095 2.38231 23.687C2.32455 23.8646 2.31765 24.0547 2.36238 24.236C2.40711 24.4172 2.50169 24.5823 2.63541 24.7126L8.86541 30.7836L7.39441 39.3596C7.3629 39.5435 7.38347 39.7326 7.45379 39.9054C7.52411 40.0782 7.64138 40.2279 7.79234 40.3376C7.9433 40.4472 8.12193 40.5125 8.30802 40.5259C8.49412 40.5394 8.68027 40.5005 8.84541 40.4136Z" fill="#F3B209"/>
<path d="M66.4574 24.7126L60.2284 30.7846L61.6994 39.3606C61.7309 39.5445 61.7104 39.7336 61.64 39.9064C61.5697 40.0792 61.4524 40.2289 61.3015 40.3386C61.1505 40.4482 60.9719 40.5135 60.7858 40.5269C60.5997 40.5404 60.4136 40.5015 60.2484 40.4146L52.5464 36.3656L44.8454 40.4136C44.6803 40.5005 44.4941 40.5394 44.308 40.5259C44.1219 40.5125 43.9433 40.4472 43.7923 40.3376C43.6414 40.2279 43.5241 40.0782 43.4538 39.9054C43.3835 39.7326 43.3629 39.5435 43.3944 39.3596L44.8654 30.7836L38.6354 24.7126C38.5017 24.5823 38.4071 24.4172 38.3624 24.236C38.3176 24.0547 38.3246 23.8646 38.3823 23.687C38.4401 23.5095 38.5464 23.3517 38.6892 23.2314C38.832 23.1112 39.0056 23.0333 39.1904 23.0066L47.7994 21.7566L51.6494 13.9546C51.9864 13.2716 53.1064 13.2716 53.4434 13.9546L57.2934 21.7566L65.9024 23.0066C66.0868 23.034 66.2598 23.1122 66.4022 23.2326C66.5445 23.3529 66.6505 23.5106 66.7081 23.6878C66.7658 23.865 66.7729 24.0548 66.7286 24.2359C66.6843 24.4169 66.5904 24.582 66.4574 24.7126Z" fill="#F3B209"/>
<path d="M44.8454 40.4136L53.4434 36.3656V13.9546C53.1064 13.2716 51.9864 13.2716 51.6494 13.9546L47.7994 21.7566L39.1904 23.0066C39.0056 23.0333 38.832 23.1112 38.6892 23.2314C38.5464 23.3517 38.4401 23.5095 38.3823 23.687C38.3246 23.8646 38.3176 24.0547 38.3624 24.236C38.4071 24.4172 38.5017 24.5823 38.6354 24.7126L44.8654 30.7836L43.3944 39.3596C43.3629 39.5435 43.3835 39.7326 43.4538 39.9054C43.5241 40.0782 43.6414 40.2279 43.7923 40.3376C43.9433 40.4472 44.1219 40.5125 44.308 40.5259C44.4941 40.5394 44.6803 40.5005 44.8454 40.4136Z" fill="#F3B209"/>
<path d="M102.457 24.7126L96.2284 30.7846L97.6994 39.3606C97.7309 39.5445 97.7104 39.7336 97.64 39.9064C97.5697 40.0792 97.4524 40.2289 97.3015 40.3386C97.1505 40.4482 96.9719 40.5135 96.7858 40.5269C96.5997 40.5404 96.4136 40.5015 96.2484 40.4146L88.5464 36.3656L80.8454 40.4136C80.6803 40.5005 80.4941 40.5394 80.308 40.5259C80.1219 40.5125 79.9433 40.4472 79.7923 40.3376C79.6414 40.2279 79.5241 40.0782 79.4538 39.9054C79.3835 39.7326 79.3629 39.5435 79.3944 39.3596L80.8654 30.7836L74.6354 24.7126C74.5017 24.5823 74.4071 24.4172 74.3624 24.236C74.3176 24.0547 74.3246 23.8646 74.3823 23.687C74.4401 23.5095 74.5464 23.3517 74.6892 23.2314C74.832 23.1112 75.0056 23.0333 75.1904 23.0066L83.7994 21.7566L87.6494 13.9546C87.9864 13.2716 89.1064 13.2716 89.4434 13.9546L93.2934 21.7566L101.902 23.0066C102.087 23.034 102.26 23.1122 102.402 23.2326C102.545 23.3529 102.65 23.5106 102.708 23.6878C102.766 23.865 102.773 24.0548 102.729 24.2359C102.684 24.4169 102.59 24.582 102.457 24.7126Z" fill="#5A5E66"/>
<path d="M80.8454 40.4136L89.4434 36.3656V13.9546C89.1064 13.2716 87.9864 13.2716 87.6494 13.9546L83.7994 21.7566L75.1904 23.0066C75.0056 23.0333 74.832 23.1112 74.6892 23.2314C74.5464 23.3517 74.4401 23.5095 74.3823 23.687C74.3246 23.8646 74.3176 24.0547 74.3624 24.236C74.4071 24.4172 74.5017 24.5823 74.6354 24.7126L80.8654 30.7836L79.3944 39.3596C79.3629 39.5435 79.3835 39.7326 79.4538 39.9054C79.5241 40.0782 79.6414 40.2279 79.7923 40.3376C79.9433 40.4472 80.1219 40.5125 80.308 40.5259C80.4941 40.5394 80.6803 40.5005 80.8454 40.4136Z" fill="#5A5E66"/>
<path d="M138.457 24.7126L132.228 30.7846L133.699 39.3606C133.731 39.5445 133.71 39.7336 133.64 39.9064C133.57 40.0792 133.452 40.2289 133.301 40.3386C133.151 40.4482 132.972 40.5135 132.786 40.5269C132.6 40.5404 132.414 40.5015 132.248 40.4146L124.546 36.3656L116.845 40.4136C116.68 40.5005 116.494 40.5394 116.308 40.5259C116.122 40.5125 115.943 40.4472 115.792 40.3376C115.641 40.2279 115.524 40.0782 115.454 39.9054C115.383 39.7326 115.363 39.5435 115.394 39.3596L116.865 30.7836L110.635 24.7126C110.502 24.5823 110.407 24.4172 110.362 24.236C110.318 24.0547 110.325 23.8646 110.382 23.687C110.44 23.5095 110.546 23.3517 110.689 23.2314C110.832 23.1112 111.006 23.0333 111.19 23.0066L119.799 21.7566L123.649 13.9546C123.986 13.2716 125.106 13.2716 125.443 13.9546L129.293 21.7566L137.902 23.0066C138.087 23.034 138.26 23.1122 138.402 23.2326C138.545 23.3529 138.65 23.5106 138.708 23.6878C138.766 23.865 138.773 24.0548 138.729 24.2359C138.684 24.4169 138.59 24.582 138.457 24.7126Z" fill="#5A5E66"/>
<path d="M116.845 40.4136L125.443 36.3656V13.9546C125.106 13.2716 123.986 13.2716 123.649 13.9546L119.799 21.7566L111.19 23.0066C111.006 23.0333 110.832 23.1112 110.689 23.2314C110.546 23.3517 110.44 23.5095 110.382 23.687C110.325 23.8646 110.318 24.0547 110.362 24.236C110.407 24.4172 110.502 24.5823 110.635 24.7126L116.865 30.7836L115.394 39.3596C115.363 39.5435 115.383 39.7326 115.454 39.9054C115.524 40.0782 115.641 40.2279 115.792 40.3376C115.943 40.4472 116.122 40.5125 116.308 40.5259C116.494 40.5394 116.68 40.5005 116.845 40.4136Z" fill="#5A5E66"/>
<path d="M174.457 24.7126L168.228 30.7846L169.699 39.3606C169.731 39.5445 169.71 39.7336 169.64 39.9064C169.57 40.0792 169.452 40.2289 169.301 40.3386C169.151 40.4482 168.972 40.5135 168.786 40.5269C168.6 40.5404 168.414 40.5015 168.248 40.4146L160.546 36.3656L152.845 40.4136C152.68 40.5005 152.494 40.5394 152.308 40.5259C152.122 40.5125 151.943 40.4472 151.792 40.3376C151.641 40.2279 151.524 40.0782 151.454 39.9054C151.383 39.7326 151.363 39.5435 151.394 39.3596L152.865 30.7836L146.635 24.7126C146.502 24.5823 146.407 24.4172 146.362 24.236C146.318 24.0547 146.325 23.8646 146.382 23.687C146.44 23.5095 146.546 23.3517 146.689 23.2314C146.832 23.1112 147.006 23.0333 147.19 23.0066L155.799 21.7566L159.649 13.9546C159.986 13.2716 161.106 13.2716 161.443 13.9546L165.293 21.7566L173.902 23.0066C174.087 23.034 174.26 23.1122 174.402 23.2326C174.545 23.3529 174.65 23.5106 174.708 23.6878C174.766 23.865 174.773 24.0548 174.729 24.2359C174.684 24.4169 174.59 24.582 174.457 24.7126Z" fill="#5A5E66"/>
<path d="M152.845 40.4136L161.443 36.3656V13.9546C161.106 13.2716 159.986 13.2716 159.649 13.9546L155.799 21.7566L147.19 23.0066C147.006 23.0333 146.832 23.1112 146.689 23.2314C146.546 23.3517 146.44 23.5095 146.382 23.687C146.325 23.8646 146.318 24.0547 146.362 24.236C146.407 24.4172 146.502 24.5823 146.635 24.7126L152.865 30.7836L151.394 39.3596C151.363 39.5435 151.383 39.7326 151.454 39.9054C151.524 40.0782 151.641 40.2279 151.792 40.3376C151.943 40.4472 152.122 40.5125 152.308 40.5259C152.494 40.5394 152.68 40.5005 152.845 40.4136Z" fill="#5A5E66"/>
</svg>
